<?xml version="1.0" standalone="no"?>
<!DOCTYPE svg PUBLIC "-//W3C//DTD SVG 20010904//EN"
 "http://www.w3.org/TR/2001/REC-SVG-20010904/DTD/svg10.dtd">
<svg version="1.0" xmlns="http://www.w3.org/2000/svg"
 width="375.000000pt" height="375.000000pt" viewBox="0 0 375.000000 375.000000"
 preserveAspectRatio="xMidYMid meet">
<metadata>
Created by potrace 1.14, written by Peter Selinger 2001-2017
</metadata>
<g transform="translate(0.000000,375.000000) scale(0.100000,-0.100000)"
fill="#000000" stroke="none">
<path d="M1669 3666 c-4 -3 -64 -10 -209 -22 -77 -6 -313 -67 -423 -109 -188
-73 -302 -148 -437 -287 -105 -109 -135 -169 -115 -234 7 -24 22 -55 33 -71
27 -39 38 -93 19 -93 -19 0 -82 -54 -178 -150 -155 -156 -171 -280 -37 -280
48 0 50 -1 35 -18 -8 -9 -20 -29 -25 -43 -10 -25 -7 -27 64 -64 51 -26 73 -42
70 -52 -6 -14 26 -53 43 -53 5 0 8 -12 6 -27 -2 -16 -6 -64 -10 -107 -3 -44
-7 -82 -9 -85 -2 -3 -7 -53 -11 -111 -4 -58 -9 -127 -10 -155 -2 -27 -7 -93
-10 -145 -4 -52 -8 -111 -10 -130 -10 -110 -20 -345 -19 -480 l0 -156 69 -139
c55 -109 82 -152 125 -195 67 -68 173 -148 220 -167 19 -8 49 -20 65 -28 44
-19 236 -72 345 -94 107 -22 251 -33 545 -43 6 -1 71 2 145 6 74 4 173 9 220
11 47 2 99 7 115 10 154 29 242 51 370 92 143 46 201 82 337 206 49 44 69 74
129 193 61 122 72 151 75 205 5 72 4 192 -1 259 -2 25 -6 95 -9 155 -7 116
-12 198 -22 305 -3 36 -7 97 -9 135 -4 77 -14 197 -20 247 -3 18 -7 54 -10 81
-15 119 -14 156 6 162 10 4 22 20 27 38 6 27 18 37 75 65 37 17 67 37 67 43 0
16 -21 53 -39 66 -13 10 -7 12 37 13 43 0 58 5 78 25 21 21 24 31 19 57 -21
91 -143 237 -272 325 -57 38 -59 43 -41 61 7 7 9 12 4 12 -4 0 6 24 22 53 46
80 49 114 15 175 -59 108 -247 274 -393 347 -151 75 -428 159 -562 170 -35 3
-81 8 -103 11 -46 6 -391 15 -396 10z"/>
</g>
</svg>
